<mxfile host="app.diagrams.net" modified="2023-10-23T02:57:19.454Z" agent="Mozilla/5.0 (Windows NT 10.0; Win64; x64) AppleWebKit/537.36 (KHTML, like Gecko) Chrome/118.0.0.0 Safari/537.36" etag="0rhtTUggzUTDZa4y0qkz" version="22.0.6" type="github">
  <diagram id="C5RBs43oDa-KdzZeNtuy" name="Page-1">
    <mxGraphModel dx="733" dy="372" grid="1" gridSize="10" guides="1" tooltips="1" connect="1" arrows="1" fold="1" page="1" pageScale="1" pageWidth="827" pageHeight="1169" math="0" shadow="0">
      <root>
        <mxCell id="WIyWlLk6GJQsqaUBKTNV-0" />
        <mxCell id="WIyWlLk6GJQsqaUBKTNV-1" parent="WIyWlLk6GJQsqaUBKTNV-0" />
        <mxCell id="S0o2kl9tLeFQMalsLIx2-27" style="edgeStyle=orthogonalEdgeStyle;rounded=0;orthogonalLoop=1;jettySize=auto;html=1;exitX=0.5;exitY=0.5;exitDx=0;exitDy=0;exitPerimeter=0;entryX=0;entryY=0.5;entryDx=0;entryDy=0;" edge="1" parent="WIyWlLk6GJQsqaUBKTNV-1" source="S0o2kl9tLeFQMalsLIx2-2" target="S0o2kl9tLeFQMalsLIx2-26">
          <mxGeometry relative="1" as="geometry" />
        </mxCell>
        <mxCell id="S0o2kl9tLeFQMalsLIx2-2" value="&lt;font style=&quot;vertical-align: inherit;&quot;&gt;&lt;font style=&quot;vertical-align: inherit;&quot;&gt;&lt;font style=&quot;vertical-align: inherit;&quot;&gt;&lt;font style=&quot;vertical-align: inherit;&quot;&gt;&lt;font style=&quot;vertical-align: inherit;&quot;&gt;&lt;font style=&quot;vertical-align: inherit;&quot;&gt;&lt;font style=&quot;vertical-align: inherit;&quot;&gt;&lt;font style=&quot;vertical-align: inherit;&quot;&gt;Cliente&lt;/font&gt;&lt;/font&gt;&lt;/font&gt;&lt;/font&gt;&lt;/font&gt;&lt;/font&gt;&lt;br&gt;&lt;/font&gt;&lt;/font&gt;" style="shape=umlActor;verticalLabelPosition=bottom;verticalAlign=top;html=1;outlineConnect=0;" vertex="1" parent="WIyWlLk6GJQsqaUBKTNV-1">
          <mxGeometry x="150" y="555" width="30" height="60" as="geometry" />
        </mxCell>
        <mxCell id="S0o2kl9tLeFQMalsLIx2-20" value="&lt;font style=&quot;vertical-align: inherit;&quot;&gt;&lt;font style=&quot;vertical-align: inherit;&quot;&gt;Funcionário&lt;/font&gt;&lt;/font&gt;" style="shape=umlActor;verticalLabelPosition=bottom;verticalAlign=top;html=1;outlineConnect=0;" vertex="1" parent="WIyWlLk6GJQsqaUBKTNV-1">
          <mxGeometry x="150" y="720" width="30" height="60" as="geometry" />
        </mxCell>
        <mxCell id="S0o2kl9tLeFQMalsLIx2-24" value="&lt;font style=&quot;vertical-align: inherit;&quot;&gt;&lt;font style=&quot;vertical-align: inherit;&quot;&gt;Sistema bancário&lt;/font&gt;&lt;/font&gt;" style="swimlane;whiteSpace=wrap;html=1;" vertex="1" parent="WIyWlLk6GJQsqaUBKTNV-1">
          <mxGeometry x="200" y="460" width="530" height="355" as="geometry" />
        </mxCell>
        <mxCell id="S0o2kl9tLeFQMalsLIx2-26" value="&lt;font style=&quot;vertical-align: inherit;&quot;&gt;&lt;font style=&quot;vertical-align: inherit;&quot;&gt;Abrir Conta&lt;/font&gt;&lt;/font&gt;" style="ellipse;whiteSpace=wrap;html=1;" vertex="1" parent="S0o2kl9tLeFQMalsLIx2-24">
          <mxGeometry x="94" y="30" width="120" height="40" as="geometry" />
        </mxCell>
        <mxCell id="S0o2kl9tLeFQMalsLIx2-30" value="&lt;font style=&quot;vertical-align: inherit;&quot;&gt;&lt;font style=&quot;vertical-align: inherit;&quot;&gt;&lt;font style=&quot;vertical-align: inherit;&quot;&gt;&lt;font style=&quot;vertical-align: inherit;&quot;&gt;Tirar saldo&lt;br&gt;&lt;/font&gt;&lt;/font&gt;&lt;/font&gt;&lt;/font&gt;" style="ellipse;whiteSpace=wrap;html=1;" vertex="1" parent="S0o2kl9tLeFQMalsLIx2-24">
          <mxGeometry x="140" y="250" width="120" height="50" as="geometry" />
        </mxCell>
        <mxCell id="S0o2kl9tLeFQMalsLIx2-29" value="&lt;font style=&quot;vertical-align: inherit;&quot;&gt;&lt;font style=&quot;vertical-align: inherit;&quot;&gt;Tirar extrato&lt;/font&gt;&lt;/font&gt;" style="ellipse;whiteSpace=wrap;html=1;" vertex="1" parent="S0o2kl9tLeFQMalsLIx2-24">
          <mxGeometry x="140" y="190" width="120" height="50" as="geometry" />
        </mxCell>
        <mxCell id="S0o2kl9tLeFQMalsLIx2-37" value="Use Case" style="ellipse;whiteSpace=wrap;html=1;" vertex="1" parent="S0o2kl9tLeFQMalsLIx2-24">
          <mxGeometry x="190" y="70" width="140" height="70" as="geometry" />
        </mxCell>
        <mxCell id="S0o2kl9tLeFQMalsLIx2-32" value="" style="curved=1;endArrow=classic;html=1;rounded=0;entryX=0;entryY=0.5;entryDx=0;entryDy=0;exitX=0.5;exitY=0.5;exitDx=0;exitDy=0;exitPerimeter=0;" edge="1" parent="WIyWlLk6GJQsqaUBKTNV-1" source="S0o2kl9tLeFQMalsLIx2-20" target="S0o2kl9tLeFQMalsLIx2-29">
          <mxGeometry width="50" height="50" relative="1" as="geometry">
            <mxPoint x="230" y="750" as="sourcePoint" />
            <mxPoint x="280" y="700" as="targetPoint" />
            <Array as="points">
              <mxPoint x="280" y="750" />
              <mxPoint x="260" y="680" />
            </Array>
          </mxGeometry>
        </mxCell>
        <mxCell id="S0o2kl9tLeFQMalsLIx2-33" value="" style="curved=1;endArrow=classic;html=1;rounded=0;entryX=0;entryY=0.5;entryDx=0;entryDy=0;" edge="1" parent="WIyWlLk6GJQsqaUBKTNV-1" target="S0o2kl9tLeFQMalsLIx2-26">
          <mxGeometry width="50" height="50" relative="1" as="geometry">
            <mxPoint x="170" y="750" as="sourcePoint" />
            <mxPoint x="250" y="650" as="targetPoint" />
            <Array as="points">
              <mxPoint x="240" y="680" />
              <mxPoint x="230" y="670" />
              <mxPoint x="270" y="650" />
              <mxPoint x="290" y="630" />
            </Array>
          </mxGeometry>
        </mxCell>
        <mxCell id="S0o2kl9tLeFQMalsLIx2-35" value="" style="curved=1;endArrow=classic;html=1;rounded=0;exitX=0.5;exitY=0.5;exitDx=0;exitDy=0;exitPerimeter=0;entryX=0;entryY=0.5;entryDx=0;entryDy=0;" edge="1" parent="WIyWlLk6GJQsqaUBKTNV-1" source="S0o2kl9tLeFQMalsLIx2-2" target="S0o2kl9tLeFQMalsLIx2-30">
          <mxGeometry width="50" height="50" relative="1" as="geometry">
            <mxPoint x="310" y="760" as="sourcePoint" />
            <mxPoint x="360" y="710" as="targetPoint" />
            <Array as="points">
              <mxPoint x="220" y="620" />
              <mxPoint x="260" y="700" />
              <mxPoint x="310" y="720" />
              <mxPoint x="310" y="710" />
            </Array>
          </mxGeometry>
        </mxCell>
      </root>
    </mxGraphModel>
  </diagram>
</mxfile>
